<?xml version="1.0" standalone="no"?>
<!DOCTYPE svg PUBLIC "-//W3C//DTD SVG 1.1//EN" "http://www.w3.org/Graphics/SVG/1.1/DTD/svg11.dtd">
<svg xmlns="http://www.w3.org/2000/svg" width="339" height="201" viewBox="0 0 339 201" fill="none">
<path d="M329.991 0.0461997H235.813C230.891 0.0461997 226.85 4.01937 226.85 8.96272V29.7987C226.85 34.6959 230.844 38.7153 235.813 38.7153H274.589L183.43 133.332C178.972 137.952 171.077 134.81 171.077 128.389V66.8508C171.077 55.1623 164.065 44.1668 152.966 40.2861C142.703 36.6825 131.697 39.4083 124.453 46.6616L6.35925 164.147C-2.46411 172.925 -2.04617 187.247 7.24158 195.517C15.8328 203.14 28.9285 202.77 37.0553 194.685L132.255 99.9759V138.922C132.255 152.274 138.338 165.117 149.205 172.879C165.551 184.521 185.706 181.795 198.058 169.506L300.131 68.0058V105.705C300.131 110.602 304.124 114.621 309.093 114.621H330.037C334.96 114.621 339 110.648 339 105.705V8.91652C339 4.01937 335.006 0 330.037 0L329.991 0.0461997Z" fill="#0F2593"/>
</svg>