<?xml version="1.0" encoding="UTF-8"?>
<svg id="Layer_2" data-name="Layer 2" xmlns="http://www.w3.org/2000/svg" viewBox="0 0 403.13 170.98">
  <defs>
    <style>
      .cls-1 {
        fill: #fff;
      }
    </style>
  </defs>
  <g id="Isolation_Mode" data-name="Isolation Mode">
    <g>
      <path class="cls-1" d="M401.76,12.05c-1.65-4.2-5.35-6.36-9.09-8.22-1-.5-2.49-.84-3.32-.99-9.85-1.79-21.89-1.1-30.8,1.45-29.42,8.43-52.45,23.1-73.34,43.85-9.95,9.88-16.78,21.02-22.07,32.24-3.39,7.2-4.16,12.79-4.35,19.12s2.07,10.71,5.97,14.27c6.94,6.35,14.57,6.51,23.18,6.91,1.9.09,2.83-1.11,3-2.74.17-1.63-1.48-2.67-2.6-2.88-1.12-.21-2.07-.04-2.79-.11-3.93-.34-8.58-.59-11.88-2.2-5.39-2.63-8.12-5.42-8.79-11.51-.42-3.78-.03-6.63,1.29-11.08,2.12-7.11,4.36-13.19,9.39-20.35,14.78-20.99,34.32-38.11,57.5-49.79,14.86-7.49,27.86-11.17,44.19-12.36,4.63-.34,9.29.04,14.09,2.17,4.8,2.13,6.8,6.51,4.89,11.91-.99,2.79-2.38,5.41-4.17,7.74-4.56,5.95-8.45,10.46-14.52,15.42-17.6,14.37-37.94,26.03-57.95,37.18,4.97-10.22,10.04-20.44,14.9-30.74.72-1.52,1.5-3.35,1.98-4.88.47-1.53-.05-2.48-.96-3.56-.04-.05-.13-.12-.18-.14-1.16-.6-2.17-.91-3.35,0-1.89,1.45-3.42,2.87-3.37,5.53.03,1.34-.39,2.29-1.05,3.67-5.27,11.05-10.79,22.27-16.22,33.33-.03.06-.09.17-.11.22-.42,1.02-1.53,1.96-2.34,2.42-.81.47-1.78,1.01-2.33,1.34-2.86,1.7-6.69,3.81-8.98,5.57-3.13,2.4-5.7,4.35-5.85,8.12-.15,3.78,2.83,5.74,5.46,8.11.92.83,1.28,1.41.62,2.84-6.22,13.37-12.06,26.96-17.56,40.68-.04.1-.11.27-.16.39-.46,1.04-.77,2.26-.33,3.27.44,1.01,1.13,1.2,2,1.58.14.06.34.09.47.09,2.03,0,2.89-1.17,3.44-2.95.05-.17.07-.25.1-.33,3.91-11.15,8.92-21.79,13.82-32.48,1.25-2.72,2.42-5.39,3.63-8.03.14-.31.14-.5.33-.58.19-.08.29.08.53.23,4.35,2.64,8.61,5.29,13.03,7.98,16.07,9.75,32.17,19.45,47.33,30.65.07.05.2.15.27.21.77.69,1.83,1.26,2.79,1.18.96-.08,1.36-.55,1.9-1.12.54-.57.89-1.65.75-2.24-.35-1.49-.96-1.9-2.16-2.77-1.19-.87-3.24-2.28-4.41-3.1-2.95-2.07-5.67-4.04-8.53-5.95-12.17-8.13-24.64-15.72-37.09-23.29-3.58-2.18-7.14-4.28-10.6-6.45-1.18-.74-1.33-.8-.68-2.13,2.41-4.94,4.91-10.1,7.27-15.19.67-1.45,1.7-2.49,3.13-3.32,2.52-1.46,5.27-2.93,7.83-4.36,4.71-2.64,10.11-5.53,14.59-8.17,17.38-10.27,33.61-20.41,48.24-34.2,5.75-5.42,10.49-11.7,13.54-18.84,1.87-4.36,2.09-8.45.44-12.65ZM298.81,101.47s.19-.17.27-.23c2.08-1.74,4.31-3.15,6.73-4.38-.52,1.11-1.04,2.22-1.57,3.33-1.02,2.16-2.03,4.32-3.05,6.49-1.48-.96-2.63-1.78-3.49-3.44-.29-.56.56-1.41,1.12-1.76Z"/>
      <g>
        <path class="cls-1" d="M335.47,106.04c.87-1.29,1.77-2.85,3.55-1.5,1.79,1.35.49,2.72-.38,4.01-2.72,3.71-5.69,7.24-9.68,9.95-1.52.92-3.16,1.69-4.94.34-1.53-1.18-1.45-2.85-.96-4.47,1.56-6.66,5.22-12.2,8.89-17.89.69-1.03,1.73-1.46,2.88-.61,1.15.85,1.01,1.95.31,2.98-1.65,3.01-3.42,5.86-5.06,8.86-1.09,1.96-1.93,4.09-3.28,7,4.13-2.69,6.34-5.76,8.68-8.68ZM334.6,91.09l.04-.28c.3-2.34,2.13-2.38,3.95-2.43l.41.05c1.1.14,1.43.88,1.28,1.99l-.04.28c-.52,1.89-1.92,2.97-3.75,3.01-1.5-.33-2.08-1.25-1.9-2.62Z"/>
        <path class="cls-1" d="M347.46,106.47c1.11-.98,2.42-2.49,3.88-.76,1.47,1.59.08,2.67-1.19,3.77-3.77,3.15-7.65,6.15-12.24,8.08-1.91.73-3.95,1.31-5.7-.32-2.01-1.8-1.45-3.97-.63-5.96,1.93-5.21,5.27-9.4,9.76-12.74,1.4-1.08,3.09-2.26,4.84-.63,1.75,1.63.67,3.45-.24,5.15-1.4,2.2-3.2,4.2-5.79,4.71-3.45.67-4.18,3.1-5.31,6.45,5.41-1.82,9.03-4.85,12.62-7.75Z"/>
        <path class="cls-1" d="M357.47,112.38c-3.52,2.34-6.01,4.26-8.74,5.87-1.54,1.06-3.57,1.64-5.2.17-1.75-1.63-1.07-3.64-.29-5.36,2.62-5.12,6.51-9.24,11.4-12.39,4.13-2.69,6.61.85,9.18,2.59,2.34,1.42.5,3.71-.28,5.42-6.38,13.59-12.49,27.36-20.05,40.38-1.82,3.26-3.94,6.63-6.65,9.22-1.42,1.22-2.82,2.3-4.77,1.2-1.7-.92-1.9-2.63-1.82-4.3.45-4.56,2.12-8.83,3.91-12.93,2.15-4.76,4.57-9.35,7.63-13.57.99-1.13,1.99-2.4,3.54-1.36,1.8,1.21.64,2.6-.22,3.89-4.8,6.8-8.39,14.03-9.87,22.24,9.3-12.38,15.04-26.47,22.24-41.08ZM357.1,106.59c.48-.5.88-1.43.4-2.05-.6-.78-1.26-.02-1.88.46-3.07,2.12-5.67,4.87-7.39,8.42,3.3-1.68,6.15-4.25,8.86-6.83Z"/>
        <path class="cls-1" d="M358.29,129.36l.17-.97c.46-1.51,1.06-2.88,1.65-4.26,8.22-19.9,17.54-39.21,27.55-58.22.3-.82.74-1.51,1.32-2.32.43-.54.86-.81,1.55-.79l.69.16c.82.3,1.36,1.01,1.33,1.85l-.16.69c-.3.82-.74,1.51-1.18,2.33-10.3,19.7-19.92,39.69-28.44,60.27-.46,1.38-.65,3.18-2.87,3.11-1.1-.31-1.64-1.02-1.61-1.85Z"/>
        <path class="cls-1" d="M384.03,115.42c1.11-.98,2.42-2.49,3.88-.76,1.47,1.59.08,2.67-1.19,3.77-3.77,3.15-7.65,6.15-12.24,8.08-1.91.73-3.95,1.31-5.7-.32-2.01-1.8-1.45-3.97-.63-5.96,1.93-5.21,5.27-9.4,9.76-12.74,1.4-1.08,3.09-2.26,4.84-.63,1.75,1.63.67,3.45-.24,5.15-1.4,2.2-3.2,4.2-5.79,4.71-3.45.67-4.18,3.1-5.31,6.45,5.41-1.82,9.03-4.85,12.62-7.75Z"/>
        <path class="cls-1" d="M379.44,130.36c-1.05-.55-1.22-1.42-1.11-2.24.09-.69.3-1.22.66-1.88,2.48-5.14,4.98-10.41,7.61-15.53.57-1.19,1.44-2.47,2.54-2.33.28.04.53.21.91.54.62.64,1.13.99,1.55,1.04,1.1.14,1.55-1.2,2.49-1.92.95-.86,1.82-2.14,3.19-1.97l.93.4c1.19.57,1.35,1.44,1.23,2.4-.09.69-.32,1.36-.54,2.03l-.98,3.23-.05.41c-.12.96.08,1.55.77,1.64.28.04.69.09,1.14-.13.72-.19,1.29-.25,1.84-.18.69.09,1.34.45,1.47,1.59l.05.7c-.16,1.24-1.49,1.77-2.64,2.04-1.02.29-2.02.44-2.84.33-2.07-.27-3.38-1.98-4.47-5.48l-10.03,13.68c-.68.89-1.54,2.18-2.78,2.02l-.93-.4Z"/>
      </g>
      <g>
        <path class="cls-1" d="M220.94,96.69l-.03-.28c-.13-1.08-.61-1.7-1.7-1.57l-.39.04c-1.72.48-3.45.96-3.18,3.24l.03.28c.15,1.34.93,2.09,2.44,2.04,1.72-.48,2.8-1.84,2.84-3.76Z"/>
        <path class="cls-1" d="M237.76,107.8c-.94.03-1.6.99-2.12,1.82-1.32,1.8-2.22,3.86-4.23,5.41.45-3.69,1.05-6.96,1.12-10.36v-.28c-.07-1.9-1.04-2.97-2.4-2.93-.55.02-1.35.31-2.01.87-.81.56-1.35.99-1.88.98-.55.02-.97-.24-1.67-1.04-.28-.39-.68-.53-1.09-.52-.81.02-1.61.86-2,1.95-1.51,4.25-2.91,8.64-4.29,13.04-.46,1.21-1.66,5.65-2.69,3.53-.6-1.23.52-2.75.73-4.11.13-1.74.8-3.48,1.28-5.15.51-1.77.9-3.63,1.52-5.36.41-1.14.28-2.24-1.02-2.76-1.3-.53-2.18.12-2.59,1.26-2.14,6.28-4.3,12.41-4.2,19.11-.08,1.64.25,3.26,1.97,4.01,2.03.86,3.4-.27,4.63-1.5,1.62-1.81,2.92-3.77,4.05-5.82.37-.41.66-.91.96-1.43,1.84-2.91,3.65-6.07,5.48-9.11l.55.25c-.21,2.33-.71,4.65-.92,6.97l-.09,2.18c.04,1.22.34,2.44,1.84,2.95.42.12.82.26,1.23.24,1.62-.05,2.67-1.57,3.6-2.81,1.85-2.36,3.56-4.71,5.27-7.2.53-.7,1.05-1.52,1.02-2.35-.01-.4-.29-.94-.99-1.46-.42-.27-.82-.39-1.11-.38Z"/>
        <path class="cls-1" d="M252.75,1.26c-.54-.74-1.47-1.16-2.39-1.24-1.01-.09-2.02.18-2.99.51-4.08,1.41-7.34,4.4-10.89,6.78-3.02,2.03-6.04,4.05-9.06,6.07-14.67,9.83-29.37,19.63-44.1,29.37-15.57,10.3-31.17,20.54-46.87,30.66-12.56,8.1-25.16,16.17-37.99,23.83-14.5,8.66-24.17,10.01-28.36,7.5,6.65-6.13,11.07-10.23,11.24-10.39C130.8,48.25,156.68,21.11,158.24,13.69c.42-1.96-.22-3.73-1.68-4.72-2.62-1.8-6.49-1.92-29.95,13.56-48.42,31.98-70.17,65.19-65.08,81.21C30.67,132.14,5.07,154.52,1.95,156.58c-1.36.59-2.18,2.06-1.9,3.58.32,1.8,2.05,3,3.83,2.64,3.22-.57,39.52-33.52,61.26-53.49,6.71,5.78,20.04,3.54,36.7-6.41,27.35-16.34,80.66-51.57,119.32-77.4l-91.93,79.17c-8.11,7.05-48.41,43.04-45.33,58.87.45,2.29,1.91,5.36,6.39,6.9.91.33,2.32.8,5.05.38,6.11-.93,20.77-9.78,50.11-31.52,11.55-8.56,22.59-17.37,30.01-23.43-.2,1.44-2.12,6.35-2.11,7.84-.02,1.65.64,3.21,2.37,3.76,1.71.44,2.94-.58,3.85-1.82,1.58-2.3,2.99-4.73,4.66-7.31,1.3,1.65,2.61,3.28,4.9,2.6-.11.58-.21,1.15-.3,1.73-.17.71-.22,1.26-.12,1.95.12.81.52,1.57,1.66,1.81l.98.12c1.2-.18,1.67-1.62,2.08-2.64l5.73-15.59c1.97,2.99,3.67,4.25,5.69,3.94.08-.01.18-.03.27-.06l-2.42,12.07c-.04.7-.2,1.41-.12,1.95.1.68.45,1.18,1.45,1.43l.98.13c1.07-.16,1.4-1.59,1.63-2.86.17-.72.33-1.43.38-2.12,1.8-8.94,3.73-17.89,5.38-26.96.51-2.14,1.44-3.25,3.45-3.55l.41-.06c4.03-.61,8.04-1.35,12.05-2.1l.54-.08c1.22-.19,2.4-.5,2.3-2.15-.33-2.15-1.95-1.9-3.56-1.65-3.36.51-6.86,1.04-10.2,1.68l-.8.12c-1.22.19-1.93.03-2.07-.92-.06-.41.11-1.12.27-1.84,1.55-6.14,2.96-12.27,4.35-18.4.16-.84.66-2.01.53-2.82-.08-.54-.42-1.03-1.43-1.3l-1.11-.1c-1.48.22-1.62,2.03-1.84,3.29-1.59,6.71-3.35,13.31-4.67,19.96-.57,2.57-1.65,3.69-4.33,4.1-5.64.86-11.13,1.82-16.76,2.83-1.72.39-4.09.21-3.72,2.63l.04.26c.22,1.48,1.21,1.61,2.15,1.47l1.99-.45,7.65-1.16-.02-.13,8.08-1.23c1.87-.28,2.57-.26,2.71.69.1.68-.16,1.69-.56,3.53l-1.75,8.75c-.16.07-.31.16-.48.26-.35.34-.75.4-1.03.44-.67.1-1.02-.39-1.17-1.34l-.06-.41.04-3.32c.05-.69.07-1.38-.03-2.06-.14-.94-.54-1.7-1.8-1.92l-.98-.12c-1.35.21-1.81,1.64-2.48,2.71-.67.93-.75,2.31-1.82,2.47-.41.06-.98-.12-1.73-.55-.45-.21-.73-.31-1-.26-1.07.16-1.55,1.62-1.76,2.88-.53,2.73-1.03,5.46-1.53,8.23-.53.76-1.1,1.65-1.84,2.79-2.04-2.57-1.67-5.52-2.83-7.82-1.18-2.65-2.93-3.83-4.71-3.42-.75-.02-1.53.25-2.14.77-45.87,38.91-79.91,59.88-86.3,57.68-1.82-.62-1.99-1.48-2.09-1.93-1.72-8.9,24.22-36.16,43.19-52.66.71,0,2.68-2.3,3.18-2.74,2.9-2.5,5.81-5,8.71-7.5,10.41-8.97,20.81-17.93,31.22-26.9,12.87-11.09,25.75-22.18,38.62-33.27,6.11-5.27,12.22-10.53,18.34-15.8,2.76-2.37,5.51-4.75,8.27-7.12,3.5-3.02,6.47-5.92,9.42-9.52.63-.76,1.26-1.54,1.63-2.45s.45-2-.04-2.86c-.05-.08-.1-.16-.15-.23ZM130.24,28.02c9.84-6.5,15.67-9.81,19.07-11.51-5.24,7.1-21.36,25.33-70.63,71.36-3.79,3.53-7.54,7.03-11.25,10.46.43-12.37,16.68-39.81,62.81-70.3ZM181.58,109.94c.36.81.52,1.58.56,2.34.23,3.79-2.97,6.72-4.2,8.12.07-1.81.32-3.59.88-5.36.27-.86.62-1.71,1.07-2.56.28-.54.62-1.09,1-1.63.22-.32.44-.62.69-.92Z"/>
      </g>
    </g>
  </g>
</svg>